<?xml version="1.0" encoding="UTF-8"?>
<svg version="1.1" xmlns="http://www.w3.org/2000/svg" width="2000" height="2000">
<path d="M0 0 C28.28543457 -0.98900121 53.28093027 11.71897027 73.63671875 30.60546875 C79.55309062 36.37553158 85.20899342 42.47521639 90.0390625 49.1953125 C90.0390625 49.8553125 90.0390625 50.5153125 90.0390625 51.1953125 C90.6990625 51.1953125 91.3590625 51.1953125 92.0390625 51.1953125 C94.5140625 55.6503125 94.5140625 55.6503125 97.0390625 60.1953125 C100.83326862 58.93057713 101.17318719 57.71538006 103.1640625 54.3203125 C106.95858799 48.14820458 111.34105293 42.69725954 116.0390625 37.1953125 C116.64878906 36.46183594 117.25851562 35.72835937 117.88671875 34.97265625 C124.59637267 27.04028635 132.3679729 20.87506551 141.0390625 15.1953125 C142.41384766 14.29425781 142.41384766 14.29425781 143.81640625 13.375 C151.55771446 8.57434981 159.35811413 5.72808348 168.0390625 3.1953125 C169.23402344 2.84146484 169.23402344 2.84146484 170.453125 2.48046875 C192.62395465 -3.57013616 217.20117639 0.87500409 237.1015625 11.7578125 C244.72188383 16.11565359 250.85669845 22.03121245 257.0390625 28.1953125 C257.65394531 28.76636719 258.26882813 29.33742188 258.90234375 29.92578125 C260.0390625 31.1953125 260.0390625 31.1953125 260.0390625 33.1953125 C260.6990625 33.1953125 261.3590625 33.1953125 262.0390625 33.1953125 C263.52276888 35.16537906 264.85435949 37.11229794 266.1640625 39.1953125 C266.75912598 40.14156494 266.75912598 40.14156494 267.36621094 41.10693359 C279.69949107 61.06879393 285.21810267 80.81363184 285.27929688 104.37084961 C285.28890329 106.59593552 285.31993753 108.82005584 285.3515625 111.04492188 C285.60821071 145.68642206 270.10509272 178.67894387 250.0390625 206.1953125 C249.42289063 207.04609375 248.80671875 207.896875 248.171875 208.7734375 C239.92902581 219.73761011 230.0135476 229.31639809 220.3515625 239.0078125 C219.85446777 239.50758606 219.35737305 240.00735962 218.84521484 240.52227783 C213.66020085 245.72843336 208.43965755 250.84363828 202.85522461 255.62426758 C201.02238201 257.20974172 199.24875968 258.84277384 197.484375 260.50390625 C196.93265625 261.02275391 196.3809375 261.54160156 195.8125 262.07617188 C194.68749936 263.13852438 193.56521512 264.20375903 192.4453125 265.27148438 C188.25857301 269.1953125 188.25857301 269.1953125 186.0390625 269.1953125 C185.7090625 270.1853125 185.3790625 271.1753125 185.0390625 272.1953125 C183.33203125 273.94921875 183.33203125 273.94921875 181.2265625 275.7578125 C180.53949219 276.35722656 179.85242187 276.95664062 179.14453125 277.57421875 C177.17350405 279.09179999 175.29941989 280.17434208 173.0390625 281.1953125 C173.0390625 281.8553125 173.0390625 282.5153125 173.0390625 283.1953125 C171.67578125 284.5703125 171.67578125 284.5703125 169.7265625 286.1953125 C166.26888701 289.13280672 162.88661509 292.13255866 159.5390625 295.1953125 C157.70630518 296.86261256 155.87299879 298.52930933 154.0390625 300.1953125 C153.2553125 300.90816406 152.4715625 301.62101562 151.6640625 302.35546875 C150.9628125 302.98324219 150.2615625 303.61101562 149.5390625 304.2578125 C148.930625 304.80566406 148.3221875 305.35351562 147.6953125 305.91796875 C146.0390625 307.1953125 146.0390625 307.1953125 143.0390625 308.1953125 C143.0390625 308.8553125 143.0390625 309.5153125 143.0390625 310.1953125 C141.578125 311.703125 141.578125 311.703125 139.6640625 313.3203125 C138.72433594 314.12855469 138.72433594 314.12855469 137.765625 314.953125 C136.0390625 316.1953125 136.0390625 316.1953125 134.0390625 316.1953125 C134.0390625 316.8553125 134.0390625 317.5153125 134.0390625 318.1953125 C132.42187939 319.6281843 130.74282878 320.99155999 129.0390625 322.3203125 C124.70084561 325.78307945 120.71525629 329.35270361 116.890625 333.37109375 C114.73601016 335.49388938 112.40995606 337.31991287 110.0390625 339.1953125 C120.94643266 340.58187113 131.8040905 341.62095171 142.7890625 342.1953125 C144.2747512 342.27713304 145.76042792 342.35917146 147.24609375 342.44140625 C155.95070794 342.91488471 164.65786187 343.31931502 173.3671875 343.6953125 C174.33533386 343.7372876 175.30348022 343.7792627 176.30096436 343.82250977 C181.01385419 344.02574525 185.72686281 344.22327569 190.44042969 344.41015625 C200.31817955 344.81454095 210.16305965 345.40072846 220.01953125 346.16796875 C229.68404549 346.91818061 239.3437929 347.50014606 249.02734375 347.94140625 C250.28545868 347.99930328 251.54357361 348.05720032 252.83981323 348.11685181 C257.9688619 348.35031951 263.09802825 348.57967724 268.2277832 348.79711914 C281.02797104 349.34571016 293.76733074 349.94062325 306.47265625 351.65625 C307.35125809 351.77483871 308.22985992 351.89342743 309.13508606 352.01560974 C320.85765709 353.7425663 329.28684135 358.28171881 338.0390625 366.1953125 C338.67585938 366.75089844 339.31265625 367.30648438 339.96875 367.87890625 C354.62056293 381.4562529 359.52247538 400.93023692 360.3069973 420.21355247 C360.43921677 425.5634194 360.411488 430.91150673 360.37963867 436.26245117 C360.37878992 438.29478442 360.37927237 440.32711858 360.38096619 442.35945129 C360.38181788 447.8127808 360.36432773 453.26590749 360.34324431 458.71919036 C360.32433799 464.4419586 360.32271618 470.16473281 360.31916809 475.88752747 C360.30988826 486.69589219 360.28533014 497.50416457 360.25511962 508.31248885 C360.22144828 520.62948982 360.20505775 532.94649547 360.19003332 545.26353109 C360.15877645 570.57417584 360.10609598 595.88473897 360.0390625 621.1953125 C361.95361196 620.93196527 363.86599678 620.65285194 365.77734375 620.3671875 C366.84251221 620.2134668 367.90768066 620.05974609 369.00512695 619.90136719 C376.70428593 618.109626 380.49763493 611.83315247 384.5390625 605.5078125 C385.68187932 603.6678823 386.81332402 601.82146122 387.94091797 599.97216797 C389.59596764 597.29421077 391.34674557 594.68365044 393.1015625 592.0703125 C393.75125 591.09964844 394.4009375 590.12898437 395.0703125 589.12890625 C395.72 588.16082031 396.3696875 587.19273437 397.0390625 586.1953125 C400.87196924 580.48280726 404.69363223 574.77187285 408.3515625 568.9453125 C412.5526119 562.30708545 417.0398691 555.87231592 421.50927734 549.41357422 C423.63105262 546.33689848 425.7344993 543.24785419 427.83911133 540.15942383 C432.66972682 533.07447309 437.53624345 526.01678793 442.4765625 519.0078125 C442.94827881 518.33758057 443.41999512 517.66734863 443.90600586 516.97680664 C447.20107122 512.31915096 450.60232556 507.74905897 454.0390625 503.1953125 C454.99284475 501.9210646 455.94597608 500.64632922 456.8984375 499.37109375 C488.10762041 457.64130116 488.10762041 457.64130116 503.484375 440.99609375 C505.46655775 438.82296679 507.39681795 436.62577324 509.31640625 434.3984375 C513.19005323 429.95848927 517.30016866 425.78665156 521.4765625 421.6328125 C522.54487305 420.55870117 522.54487305 420.55870117 523.63476562 419.46289062 C536.16748621 406.95293611 549.94626226 396.4107493 565.0390625 387.1953125 C566.16054687 386.504375 567.28203125 385.8134375 568.4375 385.1015625 C576.48987677 380.31067472 584.71909531 376.58408789 593.44824219 373.20068359 C596.38217082 372.06216888 599.30788376 370.90358655 602.234375 369.74609375 C628.70464729 359.34726771 655.80192396 351.66724066 683.3515625 344.6953125 C685.24598129 344.21365807 687.14034925 343.7318037 689.03466797 343.24975586 C694.36831522 341.8937103 699.70349555 340.54378136 705.0390625 339.1953125 C706.38103036 338.855664 707.72299077 338.51598607 709.06494141 338.17626953 C720.01912509 335.4067212 730.98309877 332.6955826 741.9921875 330.15234375 C745.18295902 329.40764018 748.36125993 328.61850425 751.5390625 327.8203125 C756.79705899 326.50008571 762.06313839 325.2161967 767.33282471 323.94351196 C785.02111863 319.67048544 802.69070524 315.32224565 820.34875488 310.92593384 C822.77576832 310.32211078 825.20308777 309.71951616 827.6307373 309.11825562 C840.17098285 306.01077382 852.65530852 302.80034631 865.0609436 299.19035339 C871.4665028 297.33319549 877.89588235 295.73561567 884.4140625 294.3203125 C894.14729704 292.13653155 903.82283047 289.76739031 913.4765625 287.2578125 C914.12203033 287.09016388 914.76749817 286.92251526 915.43252563 286.74978638 C919.9694322 285.57027723 924.5044706 284.38368437 929.0390625 283.1953125 C932.86751329 282.19236691 936.69619616 281.19033142 940.52563477 280.19116211 C942.84712397 279.58523235 945.16796605 278.97681582 947.48803711 278.36547852 C948.52710205 278.09405029 949.56616699 277.82262207 950.63671875 277.54296875 C951.99035522 277.18730835 951.99035522 277.18730835 953.37133789 276.82446289 C963.12942363 274.5231371 977.16065791 272.4101032 986.3515625 277.3203125 C988.3203125 278.7265625 988.3203125 278.7265625 990.0390625 280.1953125 C990.88984375 280.82953125 990.88984375 280.82953125 991.7578125 281.4765625 C997.43442295 286.26272426 999.40746616 293.0409331 1000.4921875 300.17578125 C1001.42590944 317.59818378 994.09470941 335.60910288 988.74609375 351.9296875 C987.14369846 356.82525062 985.67339705 361.75200344 984.2265625 366.6953125 C981.32422626 376.53228415 978.06234686 386.24646343 974.79077148 395.96508789 C972.2020895 403.6617426 969.70367586 411.37987544 967.2890625 419.1328125 C964.96723794 426.55065094 962.35325487 433.75239132 959.3828125 440.93359375 C956.88538448 446.99566467 954.70806299 453.16412222 952.6484375 459.38671875 C947.53576479 474.76126731 941.65970679 489.78506112 935.34765625 504.703125 C933.48282517 509.11227417 931.70884728 513.54513979 929.9765625 518.0078125 C926.78317362 526.04480518 923.05335161 533.80072115 919.29394531 541.58398438 C917.9950897 544.28681698 916.71448162 546.99770707 915.4375 549.7109375 C900.79120462 580.75214103 884.4871852 610.87534956 865.0390625 639.1953125 C864.51699219 639.96875 863.99492188 640.7421875 863.45703125 641.5390625 C859.0308821 648.00059411 854.26337805 654.19519256 849.48168945 660.39526367 C848.93730225 661.10142822 848.39291504 661.80759277 847.83203125 662.53515625 C847.09762817 663.48442993 847.09762817 663.48442993 846.34838867 664.45288086 C845.19038638 665.99393295 844.10832693 667.59141586 843.0390625 669.1953125 C842.3790625 669.1953125 841.7190625 669.1953125 841.0390625 669.1953125 C840.80574219 669.91203125 840.57242187 670.62875 840.33203125 671.3671875 C838.80365952 674.71021207 836.88705877 676.78944811 834.3515625 679.4453125 C830.54333943 683.51692852 827.02078346 687.64419366 823.70703125 692.125 C822.11827623 694.09699101 820.42379075 695.87181508 818.6159668 697.64257812 C816.61512458 699.61275253 814.65122003 701.61775321 812.68359375 703.62109375 C811.07303609 705.25011808 809.46235597 706.87902134 807.8515625 708.5078125 C807.03236328 709.34376953 806.21316406 710.17972656 805.36914062 711.04101562 C804.58603516 711.83056641 803.80292969 712.62011719 802.99609375 713.43359375 C802.28428955 714.15587158 801.57248535 714.87814941 800.83911133 715.62231445 C799.0390625 717.1953125 799.0390625 717.1953125 797.0390625 717.1953125 C796.7090625 718.1853125 796.3790625 719.1753125 796.0390625 720.1953125 C794.578125 721.66796875 794.578125 721.66796875 792.6640625 723.2578125 C789.33252448 726.07544306 786.10849362 728.9729794 782.9140625 731.9453125 C776.56464373 737.72703908 769.86414965 742.98955895 763.0390625 748.1953125 C762.38711914 748.69353516 761.73517578 749.19175781 761.06347656 749.70507812 C747.7893112 759.82301337 734.17418083 769.31217857 720.0390625 778.1953125 C719.10868164 778.7826416 718.17830078 779.3699707 717.21972656 779.97509766 C703.50650984 788.60990335 689.71677623 796.82331636 675.22998047 804.09472656 C673.32778683 805.0502747 671.43453024 806.02357385 669.54296875 807 C661.74043383 810.99199461 653.7968223 814.68526003 645.8515625 818.3828125 C644.7581958 818.89448975 643.6648291 819.40616699 642.53833008 819.93334961 C636.71527835 822.6241286 630.8919868 825.07110933 624.84155273 827.20092773 C619.57517567 829.06955338 614.37620891 831.11888847 609.1640625 833.1328125 C606.97916667 833.97526042 604.79427083 834.81770833 602.609375 835.66015625 C601.53977539 836.07378418 600.47017578 836.48741211 599.36816406 836.91357422 C597.0340339 837.81223829 594.69719978 838.70389591 592.35839844 839.59033203 C591.17793945 840.03876465 589.99748047 840.48719727 588.78125 840.94921875 C587.16645752 841.55938843 587.16645752 841.55938843 585.51904297 842.18188477 C583.13660452 842.96874374 583.13660452 842.96874374 582.0390625 844.1953125 C585.68244291 844.71428372 589.32900708 845.20662372 592.9765625 845.6953125 C594.47993164 845.90994141 594.47993164 845.90994141 596.01367188 846.12890625 C612.04601782 848.23974804 627.34818754 846.97432484 643.2890625 844.8828125 C645.10862852 844.65191596 646.92829098 844.42177812 648.74804688 844.19238281 C659.51589364 842.82572248 670.27450492 841.39076847 681.0078125 839.7734375 C710.76412185 835.40090514 710.76412185 835.40090514 720.0390625 841.1953125 C724.99729634 845.28082046 727.92002901 849.60551819 728.88671875 855.9921875 C730.32074169 876.73036536 712.34706609 899.1001678 701.0390625 915.1953125 C700.50667969 915.97648437 699.97429687 916.75765625 699.42578125 917.5625 C694.2810143 925.05249485 688.78492203 932.29058262 683.29101562 939.52636719 C682.26905853 940.88871092 681.28161743 942.27688946 680.3046875 943.671875 C679.88703125 944.17460938 679.469375 944.67734375 679.0390625 945.1953125 C678.3790625 945.1953125 677.7190625 945.1953125 677.0390625 945.1953125 C676.3790625 946.8453125 675.7190625 948.4953125 675.0390625 950.1953125 C674.3790625 950.1953125 673.7190625 950.1953125 673.0390625 950.1953125 C672.79285156 950.74960938 672.54664063 951.30390625 672.29296875 951.875 C668.06378546 959.70096534 661.06599478 966.38819865 655.08203125 972.90625 C652.96013058 975.22626951 652.96013058 975.22626951 650.90234375 977.984375 C650.28746094 978.71398438 649.67257812 979.44359375 649.0390625 980.1953125 C648.3790625 980.1953125 647.7190625 980.1953125 647.0390625 980.1953125 C646.81089844 980.74799805 646.58273437 981.30068359 646.34765625 981.87011719 C644.66060732 984.86777653 642.53093732 986.9629631 640.1015625 989.3984375 C639.62082275 989.8810907 639.14008301 990.3637439 638.64477539 990.86102295 C637.63185157 991.87530314 636.61641612 992.88708054 635.59863281 993.89648438 C634.03733085 995.44703222 632.48703753 997.00801753 630.9375 998.5703125 C629.95116189 999.55532984 628.964204 1000.53972703 627.9765625 1001.5234375 C626.62884766 1002.86776855 626.62884766 1002.86776855 625.25390625 1004.23925781 C623.0390625 1006.1953125 623.0390625 1006.1953125 621.0390625 1006.1953125 C620.7090625 1007.1853125 620.3790625 1008.1753125 620.0390625 1009.1953125 C617.07117146 1011.96496654 613.85065433 1014.42224712 610.65673828 1016.92626953 C609.06765834 1018.17287948 607.4887654 1019.43157844 605.91015625 1020.69140625 C598.27012182 1026.73244598 590.31031723 1032.06177265 582.0390625 1037.1953125 C581.22308594 1037.72769531 580.40710937 1038.26007813 579.56640625 1038.80859375 C538.32320352 1065.05426822 480.97638495 1075.12536581 433.0390625 1074.1953125 C432.28544434 1074.18274414 431.53182617 1074.17017578 430.75537109 1074.15722656 C409.98510313 1073.72478844 389.33414549 1070.73479613 368.74555969 1068.15916443 C367.63265304 1068.01999265 367.63265304 1068.01999265 366.49726343 1067.87800932 C364.67785827 1067.6504825 362.85845972 1067.4229028 361.0390625 1067.1953125 C361.03409728 1068.39958924 361.03409728 1068.39958924 361.02903175 1069.62819481 C360.94752081 1089.23744707 360.85533856 1108.84662323 360.75153542 1128.45577049 C360.70158795 1137.93892203 360.65514429 1147.4220657 360.6171875 1156.90527344 C360.58406365 1165.17872092 360.54412285 1173.45210384 360.49627244 1181.72547972 C360.47120828 1186.09898971 360.4493699 1190.472458 360.43571854 1194.84601974 C360.4227131 1198.97793652 360.40046833 1203.10970875 360.37167931 1207.24154472 C360.36274553 1208.74332154 360.35694742 1210.24512153 360.35484886 1211.74692345 C360.33208235 1225.58743084 360.15942066 1240.4364684 355.4140625 1253.5703125 C355.02710205 1254.67898682 355.02710205 1254.67898682 354.63232422 1255.81005859 C348.75667876 1271.74536372 337.8078879 1282.33068646 323.0390625 1290.1953125 C315.39308446 1293.53970712 307.46366922 1294.28186459 299.1863575 1294.74945545 C298.44852815 1294.7915776 297.7106988 1294.83369974 296.95051099 1294.87709831 C288.86079074 1295.30500441 280.78132164 1295.33775534 272.68234253 1295.32902527 C271.00369152 1295.33089899 269.32504094 1295.3332019 267.64639103 1295.33589059 C263.08471516 1295.34194517 258.52305778 1295.3418826 253.96137881 1295.34069622 C249.02200975 1295.3404906 244.08264638 1295.34602599 239.14328003 1295.35075378 C229.48778291 1295.35902459 219.8322919 1295.36180695 210.17679153 1295.36236616 C202.32597095 1295.36284276 194.47515237 1295.36490465 186.62433243 1295.36806679 C164.33371835 1295.37686147 142.04310907 1295.3814877 119.75249325 1295.38073631 C118.55332575 1295.38069636 117.35415825 1295.3806564 116.11865234 1295.38061523 C114.91801093 1295.38057435 113.71736951 1295.38053347 112.48034503 1295.38049135 C93.00790677 1295.3800846 73.53548782 1295.38966453 54.06305514 1295.4037536 C34.03749339 1295.41812795 14.01194106 1295.42502329 -6.01362598 1295.42415982 C-17.24410944 1295.42382836 -28.47457262 1295.42655385 -39.70505142 1295.43733788 C-49.26173543 1295.44645653 -58.81838995 1295.44860669 -68.37507643 1295.44182845 C-73.24581441 1295.43857094 -78.11649585 1295.43847887 -82.98722839 1295.4471817 C-87.4542904 1295.455081 -91.92125136 1295.45358053 -96.38831101 1295.44489757 C-97.99573117 1295.44337018 -99.60315901 1295.44514972 -101.21057011 1295.45075765 C-117.92160836 1295.50515279 -136.2840272 1295.13684074 -149.9609375 1284.1953125 C-150.71761719 1283.61523438 -151.47429688 1283.03515625 -152.25390625 1282.4375 C-165.3865087 1271.66916334 -172.38406984 1254.7057546 -174.9609375 1238.1953125 C-175.32424506 1234.052235 -175.44712429 1229.91470577 -175.55078125 1225.7578125 C-175.58759506 1224.48760254 -175.62440887 1223.21739258 -175.66233826 1221.90869141 C-176.22025874 1201.48006982 -176.31612464 1181.03797337 -176.49316406 1160.60345459 C-176.53330443 1156.08450686 -176.57743205 1151.56560185 -176.62159157 1147.04669189 C-176.8804426 1120.42895031 -177.03033407 1093.81431075 -176.9609375 1067.1953125 C-177.94617905 1067.32767807 -178.93142059 1067.46004364 -179.94651794 1067.59642029 C-188.90700516 1068.79757834 -197.87156068 1069.93975217 -206.84985352 1071.00024414 C-209.02593851 1071.25810887 -211.20143118 1071.52063592 -213.37695312 1071.78320312 C-227.75812998 1073.49972941 -242.03834494 1074.40292307 -256.5234375 1074.3828125 C-257.26661224 1074.38254059 -258.00978699 1074.38226868 -258.77548218 1074.38198853 C-270.12819347 1074.36297735 -281.32319653 1073.96300784 -292.59375 1072.49414062 C-294.98422935 1072.19237219 -297.37583047 1071.94876465 -299.7734375 1071.7109375 C-329.44042051 1068.46336835 -359.1785666 1058.03952028 -384.9609375 1043.1953125 C-385.96568115 1042.61958496 -385.96568115 1042.61958496 -386.99072266 1042.03222656 C-397.14863443 1036.13725094 -406.20019415 1029.2612179 -415.16699219 1021.69677734 C-416.79255519 1020.33624217 -418.43484032 1019.00310788 -420.09375 1017.68359375 C-425.34029901 1013.49658458 -430.16462775 1009.12029835 -434.84765625 1004.3125 C-436.81769326 1002.33882152 -438.84331165 1000.50803364 -440.9609375 998.6953125 C-447.47905014 993.08429307 -453.41784282 986.9478484 -459.015625 980.42578125 C-461.44818326 977.63664317 -463.95310434 974.91649737 -466.4609375 972.1953125 C-477.56829859 960.10340148 -488.29314587 947.61022182 -497.8125 934.21484375 C-499.51619668 931.8203755 -501.24135474 929.44771197 -502.984375 927.08203125 C-509.68519394 917.95732239 -515.98011435 908.70350013 -521.84521484 899.02099609 C-522.90177529 897.29212104 -523.98720268 895.58098409 -525.07421875 893.87109375 C-528.78503795 888.01304325 -532.18933449 882.05836167 -535.3359375 875.8828125 C-535.66996582 875.23699219 -536.00399414 874.59117187 -536.34814453 873.92578125 C-540.5688242 865.44532144 -542.60687928 856.6817851 -539.8359375 847.4453125 C-536.43777777 841.55516897 -531.41161244 838.15477499 -524.9609375 836.1953125 C-521.82421197 835.77953373 -518.74622577 835.77552101 -515.5859375 835.8203125 C-514.80605469 835.80871094 -514.02617188 835.79710937 -513.22265625 835.78515625 C-504.66007719 835.82573719 -496.33912354 837.59987919 -487.9609375 839.1953125 C-458.28791888 844.8180538 -429.09184046 844.75401009 -398.9609375 844.1953125 C-406.44667137 839.20482326 -414.79510627 836.21910468 -423.1484375 833.0078125 C-445.94454765 824.16286643 -468.18950844 814.33113379 -489.9609375 803.1953125 C-491.15468994 802.58502197 -491.15468994 802.58502197 -492.37255859 801.96240234 C-509.12218117 793.36406697 -509.12218117 793.36406697 -515.48828125 788.87109375 C-519.10217144 786.4218696 -522.84961999 784.20181597 -526.5859375 781.9453125 C-537.76102844 775.1631565 -548.63445798 768.0212008 -559.15234375 760.25390625 C-561.2103101 758.7454942 -563.276511 757.26040189 -565.36328125 755.79296875 C-575.87333915 748.39774636 -585.71133255 740.47877338 -595.16015625 731.75 C-596.63425539 730.40542422 -598.11330437 729.06530732 -599.63110352 727.77026367 C-605.66676283 722.61714384 -611.26416983 717.04395558 -616.86108398 711.42553711 C-618.5202107 709.76104973 -620.18461801 708.10197803 -621.84960938 706.44335938 C-627.43006299 700.86681382 -632.86961387 695.22728871 -637.9609375 689.1953125 C-638.99004625 688.00968776 -640.01997641 686.82477543 -641.05078125 685.640625 C-642.00063583 684.5343998 -642.94986458 683.4276369 -643.8984375 682.3203125 C-644.39150391 681.753125 -644.88457031 681.1859375 -645.39257812 680.6015625 C-648.9609375 676.42445388 -648.9609375 676.42445388 -648.9609375 674.1953125 C-649.6209375 674.1953125 -650.2809375 674.1953125 -650.9609375 674.1953125 C-652.3642596 672.54398951 -653.68198832 670.81973227 -654.9609375 669.0703125 C-655.35539063 668.5333374 -655.74984375 667.9963623 -656.15625 667.44311523 C-657.43251515 665.69953837 -658.69781189 663.94842719 -659.9609375 662.1953125 C-660.37472656 661.62345215 -660.78851562 661.0515918 -661.21484375 660.46240234 C-663.74291638 656.96450874 -666.24835649 653.45126691 -668.73779297 649.92578125 C-669.91337625 648.26260075 -671.09523102 646.60385852 -672.27734375 644.9453125 C-677.5265288 637.49603424 -682.26096742 629.84363445 -686.88769531 621.99902344 C-688.52283671 619.25097416 -690.21160744 616.53685408 -691.8984375 613.8203125 C-699.06667478 602.17727103 -705.9597377 590.51322721 -711.96484375 578.22265625 C-714.02932932 574.01250324 -716.24126335 569.88762565 -718.4609375 565.7578125 C-722.93855363 557.37457684 -727.00701498 548.83579051 -730.9609375 540.1953125 C-731.29528809 539.47134277 -731.62963867 538.74737305 -731.97412109 538.00146484 C-742.44182332 515.31399833 -752.05593076 492.26763781 -760.546875 468.76953125 C-761.83443611 465.20908711 -763.15955493 461.66980252 -764.55957031 458.15234375 C-769.18693481 446.51978401 -773.15843152 434.74558237 -776.9609375 422.8203125 C-778.12420453 419.18640131 -779.29101912 415.55365019 -780.4609375 411.921875 C-780.89154732 410.58387344 -780.89154732 410.58387344 -781.33085632 409.21884155 C-783.60576267 402.19331227 -786.03046483 395.22671564 -788.49263 388.26501465 C-791.05265251 381.00075635 -793.39503227 373.68610509 -795.6484375 366.3203125 C-796.01259766 365.1446875 -796.37675781 363.9690625 -796.75195312 362.7578125 C-799.26616211 354.60119867 -801.64955115 346.4115636 -803.9609375 338.1953125 C-804.17741943 337.42670898 -804.39390137 336.65810547 -804.61694336 335.86621094 C-814.48080073 300.5188615 -814.48080073 300.5188615 -806.9609375 286.1953125 C-803.84999815 281.12563356 -798.73514291 277.44816077 -793.078125 275.5703125 C-783.95326392 273.95410094 -775.01480916 275.46435378 -766.14257812 277.66064453 C-763.71697915 278.25510086 -761.28509779 278.81783621 -758.8515625 279.37890625 C-745.68250696 282.4443791 -732.59819086 285.81631803 -719.5234375 289.2578125 C-718.33995728 289.56901535 -718.33995728 289.56901535 -717.13256836 289.88650513 C-709.41178299 291.91967072 -701.7005225 293.97875819 -694.01515198 296.14231873 C-685.41633663 298.56175312 -676.79936128 300.71966224 -668.0859375 302.6953125 C-665.47860129 303.29443284 -662.87208501 303.89708061 -660.265625 304.5 C-659.01749023 304.78842773 -657.76935547 305.07685547 -656.48339844 305.37402344 C-645.70088255 307.88805057 -634.98354143 310.59886296 -624.3359375 313.6328125 C-613.68975531 316.65817934 -602.89323633 319.03232995 -592.10302734 321.48095703 C-579.75467071 324.28836119 -567.48857425 327.29004666 -555.2734375 330.6328125 C-546.78977828 332.9543292 -538.2937727 335.08624186 -529.7109375 337.0078125 C-503.61991507 342.89491424 -477.86121263 349.95405193 -452.39111328 358.10742188 C-445.42412514 360.31702324 -438.42545731 362.42574367 -431.43066406 364.54541016 C-425.85822786 366.24884967 -420.39131204 368.0854796 -414.9609375 370.1953125 C-413.57593158 370.71074048 -412.1905011 371.22502882 -410.8046875 371.73828125 C-400.50512049 375.61181406 -390.66626944 380.01226829 -380.9609375 385.1953125 C-380.04852295 385.67653564 -380.04852295 385.67653564 -379.11767578 386.16748047 C-369.98762956 391.01958871 -362.00449856 396.74359642 -353.9609375 403.1953125 C-352.2958332 404.46819223 -350.62934779 405.73926914 -348.9609375 407.0078125 C-345.71141048 409.53914695 -342.84058364 412.24367521 -339.9609375 415.1953125 C-337.57192826 417.28823061 -335.17011349 419.36431896 -332.75390625 421.42578125 C-332.16222656 422.00972656 -331.57054687 422.59367187 -330.9609375 423.1953125 C-330.9609375 423.8553125 -330.9609375 424.5153125 -330.9609375 425.1953125 C-330.37054687 425.44796875 -329.78015625 425.700625 -329.171875 425.9609375 C-326.70127049 427.3402856 -325.38143193 428.77048826 -323.5859375 430.9453125 C-321.33234891 433.62236158 -319.04806585 436.14714675 -316.5234375 438.5703125 C-313.9609375 441.1953125 -313.9609375 441.1953125 -313.9609375 443.1953125 C-313.3009375 443.1953125 -312.6409375 443.1953125 -311.9609375 443.1953125 C-310.23757051 445.22262428 -308.62269792 447.26053048 -307.0234375 449.3828125 C-303.22686274 454.32952052 -299.34569853 459.16056284 -295.2734375 463.8828125 C-291.27806063 468.54117462 -287.58903647 473.3409247 -284.03515625 478.34375 C-281.69961382 481.55457104 -279.24789559 484.65386773 -276.7734375 487.7578125 C-270.21178513 496.02726078 -264.07806659 504.59442601 -257.9609375 513.1953125 C-257.44354004 513.92186035 -256.92614258 514.6484082 -256.39306641 515.39697266 C-241.74228662 535.99367069 -227.55494932 556.90147564 -213.86987305 578.15283203 C-209.69383081 584.63137839 -205.42255678 591.04397857 -201.13085938 597.44628906 C-199.97105551 599.18018615 -198.81660423 600.9175188 -197.6640625 602.65625 C-196.95765625 603.72101562 -196.25125 604.78578125 -195.5234375 605.8828125 C-194.90597656 606.81480469 -194.28851562 607.74679687 -193.65234375 608.70703125 C-192.56448809 610.30741012 -191.42893765 611.87689961 -190.23828125 613.40234375 C-188.9609375 615.1953125 -188.9609375 615.1953125 -188.9609375 617.1953125 C-188.3009375 617.1953125 -187.6409375 617.1953125 -186.9609375 617.1953125 C-186.9609375 617.8553125 -186.9609375 618.5153125 -186.9609375 619.1953125 C-182.6709375 619.8553125 -178.3809375 620.5153125 -173.9609375 621.1953125 C-173.97972961 619.35065651 -173.97972961 619.35065651 -173.99890137 617.46873474 C-174.53612433 564.47290222 -175.06272541 511.47521185 -175.13818359 458.47634888 C-175.14403411 454.39109843 -175.15444811 450.30590135 -175.16894531 446.22067261 C-175.18549083 441.43247608 -175.19184986 436.64437356 -175.19013405 431.85614967 C-175.19096421 430.12495243 -175.19504422 428.39375281 -175.20282555 426.66257286 C-175.25501173 414.18166991 -174.9432459 401.83401117 -170.2734375 390.0703125 C-170.01216064 389.3992749 -169.75088379 388.7282373 -169.48168945 388.03686523 C-163.59549283 373.48415375 -153.70890659 361.9055188 -139.38110352 355.12597656 C-127.73829899 350.64878794 -115.99692859 349.51725519 -103.6484375 349.0703125 C-102.01888109 348.99846664 -100.38940516 348.9247747 -98.76000977 348.84936523 C-95.42813516 348.6962016 -92.09607436 348.54988224 -88.76367188 348.40869141 C-82.32881556 348.13010882 -75.89996618 347.75912776 -69.47039795 347.37973022 C-66.6308064 347.21264376 -63.79097095 347.04989957 -60.95114136 346.88691711 C-58.64546058 346.75450081 -56.33981575 346.62147371 -54.03417969 346.48828125 C-49.40833337 346.22108435 -44.78245483 345.95444875 -40.15657043 345.68791199 C-36.97669009 345.50466843 -33.79681617 345.32131372 -30.61694336 345.13793945 C-26.20631441 344.88359916 -21.79566757 344.62957188 -17.38500977 344.37573242 C-7.07957105 343.78218667 3.22567457 343.1858245 13.53022766 342.57707214 C18.13629517 342.30516964 22.74247481 342.03519399 27.34866333 341.76535034 C29.50812317 341.63831394 31.66752982 341.51036918 33.82687378 341.38137817 C46.74611814 340.60991374 59.65876067 339.96767246 72.59561157 339.56869507 C74.14229019 339.51656357 74.14229019 339.51656357 75.72021484 339.46337891 C77.08211441 339.42151962 77.08211441 339.42151962 78.4715271 339.3788147 C81.06536216 339.19343286 83.50322934 338.76065974 86.0390625 338.1953125 C84.79229397 336.92130873 83.5414977 335.65124596 82.2890625 334.3828125 C81.59296875 333.67511719 80.896875 332.96742188 80.1796875 332.23828125 C78.10184487 330.16249757 78.10184487 330.16249757 75.7734375 328.55859375 C75.20109375 328.10871094 74.62875 327.65882813 74.0390625 327.1953125 C74.0390625 326.5353125 74.0390625 325.8753125 74.0390625 325.1953125 C73.45640625 324.94136719 72.87375 324.68742187 72.2734375 324.42578125 C69.79718217 323.06210917 68.23385624 321.55306047 66.2890625 319.5078125 C63.04924917 316.18431396 59.70999905 313.08639955 56.19140625 310.0625 C52.82064905 307.13832225 49.53511715 304.12028542 46.23828125 301.11328125 C43.99083731 299.07011758 43.99083731 299.07011758 41.0390625 297.1953125 C41.0390625 296.5353125 41.0390625 295.8753125 41.0390625 295.1953125 C40.20375 294.8240625 40.20375 294.8240625 39.3515625 294.4453125 C35.67980446 292.46057842 32.73807742 289.89554522 29.796875 286.94921875 C26.7148134 283.87152268 23.54994993 280.90101368 20.3515625 277.9453125 C19.77083984 277.40390625 19.19011719 276.8625 18.59179688 276.3046875 C15.55328078 273.42247005 15.55328078 273.42247005 12.0390625 271.1953125 C12.0390625 270.5353125 12.0390625 269.8753125 12.0390625 269.1953125 C11.48734375 268.97230469 10.935625 268.74929688 10.3671875 268.51953125 C7.3084949 266.77977153 5.2316813 264.53766768 2.7890625 262.0078125 C-0.98951147 258.14454527 -4.83435642 254.44284622 -8.94140625 250.9296875 C-12.15352978 248.17111332 -15.28241595 245.32115753 -18.421875 242.48046875 C-20.00009952 241.06006668 -21.58713345 239.64931357 -23.1875 238.25390625 C-29.08288036 233.07772177 -34.65530078 227.60748265 -40.2109375 222.0703125 C-40.97986328 221.305979 -41.74878906 220.54164551 -42.54101562 219.75415039 C-54.9609375 207.30050805 -54.9609375 207.30050805 -54.9609375 204.1953125 C-55.6209375 204.1953125 -56.2809375 204.1953125 -56.9609375 204.1953125 C-58.86937424 201.77530443 -60.64780785 199.35190343 -62.3984375 196.8203125 C-62.93049805 196.05372314 -63.46255859 195.28713379 -64.01074219 194.49731445 C-65.67666407 192.07363977 -67.32312491 189.63806022 -68.9609375 187.1953125 C-69.70851318 186.0818042 -69.70851318 186.0818042 -70.47119141 184.94580078 C-77.98380355 173.60462153 -83.40000497 161.99489091 -87.9609375 149.1953125 C-88.38117187 148.05707031 -88.80140625 146.91882813 -89.234375 145.74609375 C-98.7323405 117.85921008 -97.71780044 84.55388355 -84.953125 57.91015625 C-80.56037031 49.11977577 -75.61224955 40.49347519 -68.9609375 33.1953125 C-68.3009375 33.1953125 -67.6409375 33.1953125 -66.9609375 33.1953125 C-66.69925781 32.61136719 -66.43757812 32.02742188 -66.16796875 31.42578125 C-59.88505611 19.81560935 -44.72864488 11.880087 -32.9609375 7.1953125 C-32.29964844 6.91171875 -31.63835938 6.628125 -30.95703125 6.3359375 C-21.10820131 2.3059361 -10.5458827 0.6956387 0 0 Z M-44.7109375 571.5703125 C-50.20568416 577.98085027 -50.08523005 586.72821843 -50.08957195 594.81668377 C-50.09132499 595.55560807 -50.09307803 596.29453238 -50.09488419 597.05584833 C-50.09952948 599.5274601 -50.09708248 601.99901265 -50.09465027 604.47062683 C-50.09651898 606.26240455 -50.09881993 608.05418186 -50.10151559 609.84595853 C-50.10763257 614.76666498 -50.10750011 619.68735443 -50.10632122 624.60806382 C-50.10611718 629.91633435 -50.11163625 635.22459944 -50.11637878 640.53286743 C-50.12468551 650.93202226 -50.12743364 661.33117143 -50.12799116 671.7303293 C-50.12846634 680.18400832 -50.1305212 688.63768547 -50.13369179 697.09136391 C-50.14249868 721.06104472 -50.14711115 745.03072105 -50.14636131 769.00040349 C-50.14632136 770.29263606 -50.1462814 771.58486863 -50.14624023 772.91625977 C-50.14619935 774.21007096 -50.14615847 775.50388215 -50.14611635 776.83689974 C-50.14570995 797.80253421 -50.15527801 818.76815071 -50.1693786 839.73377999 C-50.18374396 861.26305708 -50.19064869 882.79232541 -50.18978482 904.32160741 C-50.18945289 916.40784006 -50.19219822 928.49405388 -50.20296288 940.58028221 C-50.21207001 950.87144568 -50.21424139 961.16258178 -50.20745345 971.45374753 C-50.20418924 976.70276764 -50.20412802 981.95173525 -50.2128067 987.20075035 C-50.22067699 992.01038025 -50.21923481 996.81991608 -50.21052257 1001.6295437 C-50.20898875 1003.36506853 -50.21079928 1005.1006004 -50.21638265 1006.83611693 C-50.73621578 1026.41643086 -50.73621578 1026.41643086 -41.9609375 1043.1953125 C-36.94746222 1047.17075545 -31.58540175 1048.30146684 -25.31347656 1048.35644531 C-23.976185 1048.37085663 -23.976185 1048.37085663 -22.61187744 1048.38555908 C-21.18364655 1048.3919339 -21.18364655 1048.3919339 -19.7265625 1048.3984375 C-18.73396423 1048.40413757 -17.74136597 1048.40983765 -16.71868896 1048.41571045 C-14.62073832 1048.4251412 -12.52277298 1048.43168677 -10.42480469 1048.43554688 C-7.23606117 1048.44523616 -4.04796699 1048.47627156 -0.859375 1048.5078125 C1.18489203 1048.51434498 3.22916364 1048.51959449 5.2734375 1048.5234375 C6.21749451 1048.5357843 7.16155151 1048.5481311 8.13421631 1048.56085205 C15.46763747 1048.53651024 22.11427307 1047.66513468 27.8515625 1042.8203125 C28.5734375 1041.9540625 29.2953125 1041.0878125 30.0390625 1040.1953125 C31.121875 1038.9578125 31.121875 1038.9578125 32.2265625 1037.6953125 C38.8750132 1028.52503567 37.1566539 1015.86518467 37.09290695 1005.04925346 C37.06619726 1000.29475324 37.05999452 995.54020676 37.05175781 990.78564453 C37.04963728 989.73093051 37.04751675 988.67621649 37.04533195 987.58954144 C37.0109843 965.51214943 37.18098307 943.43415383 37.32658005 921.35733604 C37.38243782 912.86703161 37.43147337 904.37674188 37.47220552 895.88635105 C37.50186914 889.81921013 37.53903511 883.75214327 37.58185256 877.68508106 C37.60699668 874.09296434 37.62882356 870.50090064 37.64240646 866.90872002 C37.65752559 862.95263551 37.68811959 858.99675663 37.72021484 855.04077148 C37.72237503 853.86251801 37.72453522 852.68426453 37.72676086 851.4703064 C37.73792435 850.4022023 37.74908783 849.33409821 37.7605896 848.23362732 C37.76888574 846.83792338 37.76888574 846.83792338 37.77734947 845.4140234 C38.0390625 843.1953125 38.0390625 843.1953125 40.0390625 841.1953125 C42.06274509 840.94642353 42.06274509 840.94642353 44.60072327 840.94807434 C45.561241 840.94387985 46.52175873 840.93968536 47.51138306 840.93536377 C48.56860565 840.94098328 49.62582825 840.94660278 50.71508789 840.95239258 C52.3809771 840.94954506 52.3809771 840.94954506 54.08052063 840.94664001 C57.76599091 840.94292335 61.45126587 840.95364853 65.13671875 840.96484375 C67.68737261 840.96603507 70.23802691 840.96648881 72.78868103 840.9662323 C78.13950547 840.96779867 83.49026161 840.97585894 88.84106445 840.98950195 C95.03497876 841.0052359 101.22883103 841.0104998 107.42276388 841.0097664 C113.37295473 841.00915691 119.32312762 841.01436232 125.27331352 841.02255821 C127.80958369 841.02575151 130.3458557 841.02771382 132.88212776 841.02845192 C136.4189279 841.03060802 139.95564846 841.03933612 143.49243164 841.05004883 C144.55167847 841.04959564 145.61092529 841.04914246 146.70227051 841.04867554 C147.65996841 841.05294052 148.61766632 841.05720551 149.60438538 841.06159973 C150.44154115 841.06327558 151.27869692 841.06495142 152.14122105 841.06667805 C154.0390625 841.1953125 154.0390625 841.1953125 155.0390625 842.1953125 C155.14242789 844.53823029 155.18065833 846.85201148 155.17709351 849.19566345 C155.17991479 849.9367523 155.18273607 850.67784115 155.18564284 851.44138724 C155.19402704 853.94392673 155.19533037 856.44642219 155.19677734 858.94897461 C155.20144301 860.73583095 155.20658616 862.5226861 155.21217346 864.30953979 C155.22347783 868.16844001 155.23190092 872.02733239 155.23829269 875.88624382 C155.24895534 881.99259711 155.26919784 888.09889462 155.29141235 894.20521545 C155.35338747 911.57338899 155.40728701 928.94156026 155.44042969 946.30981445 C155.45879909 955.89395214 155.48776916 965.47799738 155.5284344 975.06206709 C155.54947516 980.13397598 155.56495742 985.20576848 155.56724167 990.27772331 C155.56939575 995.05560903 155.5853425 999.83325293 155.61163139 1004.61106491 C155.61879848 1006.35970156 155.62093799 1008.10836759 155.61752892 1009.85701561 C155.49463949 1027.4066969 155.49463949 1027.4066969 164.0390625 1042.1953125 C171.21493212 1047.79918634 177.5420584 1048.35188301 186.3984375 1048.36328125 C187.30225159 1048.36660965 188.20606567 1048.36993805 189.13726807 1048.37336731 C191.04691053 1048.3784202 192.95656179 1048.38077614 194.86621094 1048.38061523 C197.76512491 1048.3827945 200.66365363 1048.40094779 203.5625 1048.41992188 C205.42447788 1048.42285771 207.28645755 1048.42484123 209.1484375 1048.42578125 C210.00499939 1048.43296677 210.86156128 1048.44015228 211.74407959 1048.44755554 C219.87415684 1048.41720164 227.41809182 1047.85026721 233.53515625 1042.03125 C239.58139335 1034.65012939 240.19539356 1025.71263299 240.16769695 1016.5002985 C240.17032651 1015.37998422 240.17032651 1015.37998422 240.17300919 1014.23703733 C240.17765511 1011.7384149 240.17520733 1009.23985102 240.17277527 1006.7412262 C240.17464394 1004.93009851 240.17694487 1003.11897122 240.17964059 1001.30784458 C240.18575787 996.33380943 240.18562508 991.35979109 240.18444622 986.38575304 C240.1842422 981.02029878 240.18976104 975.65484993 240.19450378 970.28939819 C240.20281013 959.77928947 240.2055586 949.26918636 240.20611616 938.75907464 C240.20659126 930.21764194 240.20864568 921.67621109 240.21181679 913.13477898 C240.22062273 888.92348541 240.22523617 864.71219629 240.22448631 840.50090111 C240.22444636 839.19566966 240.2244064 837.89043821 240.22436523 836.5456543 C240.22432435 835.23883141 240.22428347 833.93200852 240.22424135 832.58558493 C240.22383473 811.39738639 240.2334085 790.2092056 240.2475036 769.02101219 C240.26185892 747.270272 240.26877427 725.51954048 240.26790982 703.76879543 C240.2675776 691.55525808 240.27033597 679.34173935 240.28108788 667.12820625 C240.29018168 656.73152683 240.29237729 646.33487447 240.28557845 635.93819279 C240.2823078 630.63296103 240.28227625 625.32778125 240.2909317 620.0225544 C240.29877335 615.16625666 240.29738921 610.31005231 240.28864757 605.45375692 C240.28710744 603.69676908 240.28894797 601.93977436 240.29450765 600.18279464 C240.30156667 597.79380604 240.296275 595.40514516 240.28795147 593.01616764 C240.29291965 592.33487703 240.29788783 591.65358643 240.30300656 590.95165065 C240.2267734 580.59445832 236.69288858 574.24803796 229.8515625 566.8203125 C221.44595249 561.96373783 210.60673035 562.91066696 201.17724609 562.98950195 C198.91101853 563.00783713 196.64520062 563.01001031 194.37890625 563.00976562 C176.75663487 562.86933967 176.75663487 562.86933967 162.2265625 571.8828125 C155.30431994 582.36506553 155.89964687 595.44870194 156.00390625 607.546875 C156.01508472 610.31674707 156.02440104 613.08656317 156.03076172 615.85644531 C156.03275479 616.6332559 156.03474787 617.41006649 156.03680134 618.21041679 C156.07104991 637.62553061 155.84278899 657.04195018 155.68325675 676.45620799 C155.62730683 683.27032946 155.5755348 690.08446703 155.52707058 696.89864576 C155.48432783 702.86654465 155.43620881 708.83439263 155.38612175 714.80223465 C155.36572986 717.3245376 155.34701159 719.84685465 155.32998848 722.36918259 C155.30606826 725.85734324 155.27602029 729.34539813 155.24438477 732.83349609 C155.2386293 733.87523483 155.23287384 734.91697357 155.22694397 735.99028015 C155.21715515 736.93131088 155.20736633 737.87234161 155.19728088 738.84188843 C155.19082833 739.66350149 155.18437578 740.48511456 155.1777277 741.33162498 C155.0390625 743.1953125 155.0390625 743.1953125 154.0390625 744.1953125 C151.61712181 744.32575272 149.22217523 744.39196962 146.79833984 744.41650391 C146.03844254 744.4280098 145.27854523 744.43951569 144.49562073 744.45137024 C141.95545586 744.4883373 139.41526759 744.51788038 136.875 744.546875 C135.08981022 744.57003037 133.30462347 744.59342094 131.5194397 744.61703491 C127.74801858 744.66568431 123.97657442 744.71052382 120.20507812 744.75292969 C116.39802097 744.7960671 112.59109807 744.84443101 108.78417969 744.8984375 C90.16966844 745.16218253 71.56464291 745.3719269 52.953125 744.84375 C51.01099625 744.79536484 51.01099625 744.79536484 49.02963257 744.7460022 C47.8617923 744.70526581 46.69395203 744.66452942 45.49072266 744.62255859 C44.47853668 744.58875092 43.46635071 744.55494324 42.42349243 744.52011108 C40.0390625 744.1953125 40.0390625 744.1953125 38.0390625 742.1953125 C37.72021484 739.38749695 37.72021484 739.38749695 37.625 735.69799805 C37.60558853 735.01445818 37.58617706 734.33091831 37.56617737 733.62666512 C37.50437598 731.29941683 37.45859078 728.97217074 37.4140625 726.64453125 C37.3860405 725.41386209 37.3860405 725.41386209 37.35745239 724.15833092 C36.77262858 698.44727281 36.96817486 672.72334561 37.0390625 647.0078125 C37.06285527 638.25571121 37.08308605 629.5036272 37.09500122 620.75150108 C37.10140853 617.29783479 37.11389098 613.84422676 37.12670898 610.39057922 C37.13034145 608.27055916 37.13369319 606.15053859 37.13671875 604.03051758 C37.14446823 602.62249123 37.14446823 602.62249123 37.15237427 601.1860199 C37.15335261 588.77664562 36.97674049 579.09086491 28.0390625 569.8203125 C18.83969957 560.80062463 4.73589229 563.00873384 -7.32543945 563.01000977 C-9.65529207 563.00780602 -11.98468262 562.98952511 -14.31445312 562.97070312 C-26.29240149 562.92480663 -35.26363202 563.41127595 -44.7109375 571.5703125 Z " fill="#6FDDFE" transform="translate(903.9609375,376.8046875)"/>
</svg>
